<svg width="24" height="25" viewBox="0 0 24 25" fill="none" xmlns="http://www.w3.org/2000/svg">
<circle cx="12" cy="12.5" r="12" fill="#AF52DE"/>
<g clip-path="url(#clip0_1_411)">
<path d="M7.94921 14.8691C8.02162 14.7998 8.1212 14.7594 8.2268 14.7594H17.8039C17.9789 14.7594 18.0664 14.9615 17.9427 15.0799L16.0508 16.8903C15.9784 16.9596 15.8788 17 15.7732 17H6.19613C6.02112 17 5.93362 16.7979 6.05733 16.6795L7.94921 14.8691Z" fill="white"/>
<path d="M7.94921 8.10972C8.02464 8.04042 8.12421 8 8.2268 8H17.8039C17.9789 8 18.0664 8.20212 17.9427 8.3205L16.0508 10.1309C15.9784 10.2002 15.8788 10.2406 15.7732 10.2406H6.19613C6.02112 10.2406 5.93362 10.0385 6.05733 9.92012L7.94921 8.10972Z" fill="white"/>
<path d="M16.0508 11.4678C15.9784 11.3985 15.8788 11.358 15.7732 11.358H6.19613C6.02112 11.358 5.93362 11.5601 6.05733 11.6785L7.94921 13.4889C8.02162 13.5582 8.1212 13.5986 8.2268 13.5986H17.8039C17.9789 13.5986 18.0664 13.3965 17.9427 13.2781L16.0508 11.4678Z" fill="white"/>
</g>
<defs>
<clipPath id="clip0_1_411">
<rect width="12" height="9" fill="white" transform="translate(6 8)"/>
</clipPath>
</defs>
</svg>
