<svg width="350" height="28" viewBox="0 0 350 28" fill="none" xmlns="http://www.w3.org/2000/svg">
<path d="M17.4205 14.8854C17.4205 18.3791 16.2262 21.31 13.8376 23.6712C11.4489 26.0392 8.53867 27.2198 5.10673 27.2198H0V22.1543H5.10673C7.13844 22.1543 8.84753 21.461 10.234 20.0677C11.6205 18.6811 12.3138 16.9515 12.3138 14.8923L12.2726 0.780151H17.4205V14.8854Z" fill="#09563A"/>
<path d="M21.0925 1.02042H26.1992L26.1169 6.0036H21.0513L21.0925 1.02042ZM21.0925 8.02159H26.1992V27.213H21.0513L21.0925 8.02159Z" fill="#09563A"/>
<path d="M35.1097 6.25069H43.8817V11.3574H35.0273V18.4272C35.0273 19.4774 35.3568 20.356 36.0226 21.0698C36.6884 21.7837 37.5189 22.1475 38.5142 22.1475H43.8337V27.213H38.5622C36.1461 27.213 34.1075 26.355 32.4465 24.6322C30.7854 22.9094 29.9549 20.8159 29.9549 18.338V0.848816H35.0204L35.1028 6.24382L35.1097 6.25069Z" fill="#09563A"/>
<path d="M63.9525 24.2064C61.9208 26.2175 59.436 27.2197 56.4983 27.2197C53.5606 27.2197 51.0415 26.2106 49.0235 24.1858C47.0055 22.161 45.9965 19.6831 45.9965 16.7385C45.9965 13.7939 47.0124 11.3092 49.0441 9.27059C51.0758 7.23202 53.5606 6.21616 56.4983 6.21616C59.436 6.21616 61.9208 7.23202 63.9525 9.27059C65.9842 11.3092 67 13.7939 67 16.7385C67 19.6831 65.9842 22.2022 63.9525 24.2064ZM60.2666 12.833C59.2644 11.824 58.0084 11.3229 56.4983 11.3229C54.9882 11.3229 53.7115 11.8445 52.6682 12.8947C51.6249 13.9449 51.1033 15.2216 51.1033 16.7385C51.1033 18.2554 51.6249 19.539 52.6682 20.5823C53.7115 21.6324 54.9882 22.1541 56.4983 22.1541C58.0084 22.1541 59.3193 21.6393 60.3489 20.6029C61.3785 19.5664 61.8933 18.2829 61.8933 16.7385L61.7698 16.5326C61.7698 15.0706 61.2687 13.8419 60.2666 12.833Z" fill="#09563A"/>
</svg>
